<?xml version="1.0" encoding="UTF-8" standalone="no"?>
<!-- Created with Inkscape (http://www.inkscape.org/) -->

<svg
   xmlns:dc="http://purl.org/dc/elements/1.1/"
   xmlns:cc="http://creativecommons.org/ns#"
   xmlns:rdf="http://www.w3.org/1999/02/22-rdf-syntax-ns#"
   xmlns:svg="http://www.w3.org/2000/svg"
   xmlns="http://www.w3.org/2000/svg"
   xmlns:sodipodi="http://sodipodi.sourceforge.net/DTD/sodipodi-0.dtd"
   xmlns:inkscape="http://www.inkscape.org/namespaces/inkscape"
   id="svg2"
   version="1.1"
   inkscape:version="0.91 r13725"
   xml:space="preserve"
   width="195"
   height="64.041946"
   viewBox="0 0 195 64.041946"
   sodipodi:docname="logo.svg"><metadata
     id="metadata8"><rdf:RDF><cc:Work
         rdf:about=""><dc:format>image/svg+xml</dc:format><dc:type
           rdf:resource="http://purl.org/dc/dcmitype/StillImage" /><dc:title></dc:title></cc:Work></rdf:RDF></metadata><defs
     id="defs6" /><sodipodi:namedview
     pagecolor="#ffffff"
     bordercolor="#666666"
     borderopacity="1"
     objecttolerance="10"
     gridtolerance="10"
     guidetolerance="10"
     inkscape:pageopacity="0"
     inkscape:pageshadow="2"
     inkscape:window-width="1315"
     inkscape:window-height="744"
     id="namedview4"
     showgrid="false"
     fit-margin-top="0"
     fit-margin-left="0"
     fit-margin-right="0"
     fit-margin-bottom="0"
     inkscape:zoom="0.49321329"
     inkscape:cx="390.26674"
     inkscape:cy="85.12737"
     inkscape:window-x="51"
     inkscape:window-y="24"
     inkscape:window-maximized="1"
     inkscape:current-layer="g10" /><g
     id="g10"
     inkscape:groupmode="layer"
     inkscape:label="ink_ext_XXXXXX"
     transform="matrix(1.25,0,0,-1.25,-102.57075,156.07707)"><g
       id="g12"
       transform="matrix(0.03620595,0,0,0.03620595,52.347228,46.970346)"><path
         d="m 820.566,2147.86 443.084,0 0,-116.38 -315.072,0 0,-123.86 277.662,0 0,-116.41 -277.662,0 0,-225.28 -128.012,0 0,581.93"
         style="fill:#ed1639;fill-opacity:1;fill-rule:nonzero;stroke:none"
         id="path14"
         inkscape:connector-curvature="0" /><path
         d="m 820.566,1318.2 128.012,0 0,-465.509 290.142,0 0,-116.382 -418.154,0 0,581.891"
         style="fill:#ed1639;fill-opacity:1;fill-rule:nonzero;stroke:none"
         id="path16"
         inkscape:connector-curvature="0" /><path
         d="m 3213.42,736.281 -418.14,0 0,116.379 290.14,0 0,465.55 128,0 0,-581.929"
         style="fill:#ed1639;fill-opacity:1;fill-rule:nonzero;stroke:none"
         id="path18"
         inkscape:connector-curvature="0" /><path
         d="m 3213.42,1565.92 -128,0 0,465.56 -290.14,0 0,116.38 418.14,0 0,-581.94"
         style="fill:#ed1639;fill-opacity:1;fill-rule:nonzero;stroke:none"
         id="path20"
         inkscape:connector-curvature="0" /><path
         d="m 1696.17,1406.07 -77.32,188.75 -77.31,-188.75 154.63,0 z m -134.66,342.54 118.04,0 249.4,-586.12 -133.84,0 -53.21,130.53 -246.07,0 -53.21,-130.53 -130.53,0 249.42,586.12"
         style="fill:#ed1639;fill-opacity:1;fill-rule:nonzero;stroke:none"
         id="path22"
         inkscape:connector-curvature="0" /><path
         d="m 2453.08,1402.77 -147.97,0 0,-128 152.12,0 c 56.54,0 90.62,19.93 90.62,63.15 l 0,1.65 c 0,39.09 -29.1,63.2 -94.77,63.2 z m 62.36,169.59 c 0,38.26 -29.94,59.84 -83.97,59.84 l -126.36,0 0,-123.02 118.04,0 c 56.53,0 92.29,18.29 92.29,61.53 l 0,1.65 z m -335.03,172.08 270.17,0 c 66.51,0 118.89,-18.29 152.14,-51.52 26.61,-26.61 39.91,-59.04 39.91,-98.94 l 0,-1.68 c 0,-65.67 -34.92,-102.24 -76.48,-125.51 67.34,-25.79 108.91,-64.86 108.91,-143 l 0,-1.68 c 0,-106.42 -86.46,-159.62 -217.83,-159.62 l -276.82,0 0,581.95"
         style="fill:#ed1639;fill-opacity:1;fill-rule:nonzero;stroke:none"
         id="path24"
         inkscape:connector-curvature="0" /><path
         d="m 3785.29,1976.41 -73.61,0 0,-63.68 75.66,0 c 28.13,0 45.09,9.93 45.09,31.41 l 0,0.84 c 0,19.44 -14.47,31.43 -47.14,31.43 z m 31.02,84.38 c 0,19.03 -14.88,29.77 -41.8,29.77 l -62.83,0 0,-61.22 58.69,0 c 28.16,0 45.94,9.09 45.94,30.61 l 0,0.84 z m -166.69,85.61 134.42,0 c 33.07,0 59.13,-9.1 75.68,-25.67 13.23,-13.23 19.86,-29.36 19.86,-49.19 l 0,-0.84 c 0,-32.67 -17.37,-50.86 -38.06,-62.44 33.52,-12.83 54.19,-32.26 54.19,-71.12 l 0,-0.84 c 0,-52.94 -43.03,-79.41 -108.37,-79.41 l -137.72,0 0,289.51"
         style="fill:#ed1639;fill-opacity:1;fill-rule:nonzero;stroke:none"
         id="path26"
         inkscape:connector-curvature="0" /><path
         d="m 4164.74,2005.77 c 31.01,0 48.8,16.53 48.8,40.95 l 0,0.84 c 0,27.28 -19.04,41.35 -50.05,41.35 l -63.28,0 0,-83.14 64.53,0 z m -128.24,140.63 132.35,0 c 36.8,0 65.36,-10.35 84.38,-29.37 16.14,-16.13 24.83,-38.89 24.83,-66.17 l 0,-0.84 c 0,-46.71 -25.27,-76.07 -62.07,-89.75 l 70.75,-103.38 -74.45,0 -62.04,92.64 -50.04,0 0,-92.64 -63.71,0 0,289.51"
         style="fill:#ed1639;fill-opacity:1;fill-rule:nonzero;stroke:none"
         id="path28"
         inkscape:connector-curvature="0" /><path
         d="m 4422.22,2146.4 58.72,0 135.64,-178.24 0,178.24 62.87,0 0,-289.51 -54.18,0 -140.18,184.03 0,-184.03 -62.87,0 0,289.51"
         style="fill:#ed1639;fill-opacity:1;fill-rule:nonzero;stroke:none"
         id="path30"
         inkscape:connector-curvature="0" /><path
         d="m 5062.67,2000.82 0,0.81 c 0,49.64 -36.4,90.99 -87.69,90.99 -51.25,0 -86.85,-40.51 -86.85,-90.15 l 0,-0.84 c 0,-49.6 36.41,-90.95 87.69,-90.95 51.29,0 86.85,40.5 86.85,90.14 z m -241.11,0 0,0.81 c 0,82.3 64.92,149.71 154.26,149.71 89.35,0 153.43,-66.57 153.43,-148.87 l 0,-0.84 c 0,-82.3 -64.93,-149.68 -154.27,-149.68 -89.31,0 -153.42,66.57 -153.42,148.87"
         style="fill:#ed1639;fill-opacity:1;fill-rule:nonzero;stroke:none"
         id="path32"
         inkscape:connector-curvature="0" /></g></g></svg>